<?xml version="1.0" standalone="no"?>
<!DOCTYPE svg PUBLIC "-//W3C//DTD SVG 20010904//EN"
 "http://www.w3.org/TR/2001/REC-SVG-20010904/DTD/svg10.dtd">
<svg version="1.0" xmlns="http://www.w3.org/2000/svg"
 width="512.000000pt" height="512.000000pt" viewBox="0 0 512.000000 512.000000"
 preserveAspectRatio="xMidYMid meet">

<g transform="translate(0.000000,512.000000) scale(0.100000,-0.100000)"
fill="#000000" stroke="none">
<path d="M221 5102 c-68 -37 -71 -52 -71 -372 0 -320 3 -335 71 -372 31 -16
64 -18 389 -18 l355 -1 288 -364 c159 -201 292 -378 297 -393 5 -15 91 -453
190 -975 l182 -947 -171 -204 c-94 -112 -177 -208 -184 -213 -6 -6 -48 -13
-92 -16 -297 -21 -536 -269 -553 -574 -6 -118 9 -197 58 -298 113 -232 341
-368 590 -351 162 11 282 66 400 185 123 124 184 279 179 451 l-3 76 185 222
184 221 482 0 482 1 141 -178 c119 -149 140 -181 135 -202 -3 -14 -9 -74 -12
-135 -6 -132 9 -202 69 -317 72 -139 208 -252 363 -301 55 -17 93 -22 180 -21
96 0 121 4 195 30 160 56 277 159 350 307 67 135 83 249 55 392 -45 236 -231
427 -469 483 l-74 17 -386 488 -385 487 482 0 c448 0 485 1 516 18 68 37 71
52 71 372 0 320 -3 335 -71 372 -32 17 -78 18 -825 18 l-791 0 -124 157 c-68
86 -127 162 -132 169 -5 9 149 153 478 449 527 475 522 469 496 547 -37 112
-385 346 -636 427 -419 135 -881 86 -1254 -133 -34 -20 -66 -36 -70 -36 -4 0
-81 93 -171 208 -177 224 -214 263 -275 294 -88 46 -114 48 -610 48 -437 0
-473 -1 -504 -18z m987 -259 c21 -12 258 -305 704 -868 370 -468 1014 -1282
1431 -1809 417 -527 760 -963 763 -969 2 -7 -21 -25 -52 -41 -30 -16 -77 -48
-102 -71 l-47 -43 -1395 1763 c-767 970 -1407 1771 -1421 1779 -23 14 -75 16
-353 16 l-326 0 0 130 0 130 383 0 c345 0 385 -2 415 -17z m1628 -308 c184
-32 362 -104 511 -207 l75 -52 -27 -24 c-16 -13 -199 -178 -408 -365 -209
-188 -383 -342 -388 -342 -16 0 -649 807 -642 817 3 6 56 34 117 64 112 54
214 86 341 109 99 18 315 18 421 0z m-612 -1793 c158 -200 286 -368 284 -373
-7 -21 -363 -438 -369 -431 -5 6 -229 1165 -229 1187 0 14 7 6 314 -383z
m2226 -142 l0 -130 -507 0 -508 1 -95 121 c-52 66 -96 125 -98 129 -2 5 269 9
602 9 l606 0 0 -130z m-1681 -545 c39 -49 70 -95 68 -102 -1 -6 -173 -215
-382 -463 -209 -249 -390 -464 -402 -479 l-21 -26 -38 44 c-21 24 -64 63 -96
86 l-57 43 421 501 c232 276 424 498 429 494 4 -4 39 -48 78 -98z m384 -487
l117 -148 -260 0 c-143 0 -260 2 -260 5 0 3 59 76 131 161 107 126 134 153
144 142 6 -7 64 -79 128 -160z m-1461 -631 c68 -33 131 -99 166 -175 23 -49
27 -70 27 -147 0 -79 -4 -97 -29 -149 -37 -76 -96 -135 -172 -172 -52 -25 -70
-29 -149 -29 -77 0 -98 4 -145 26 -78 37 -131 88 -170 161 -29 54 -35 75 -38
148 -5 118 19 183 102 266 83 83 140 105 262 101 74 -2 100 -8 146 -30z m2810
4 c75 -36 134 -94 170 -169 30 -61 33 -75 33 -157 -1 -77 -5 -98 -28 -146 -35
-72 -104 -141 -175 -176 -49 -23 -70 -27 -147 -28 -82 0 -96 3 -157 33 -74 36
-133 96 -170 170 -34 70 -37 196 -7 277 30 80 121 173 199 203 75 30 212 26
282 -7z"/>
</g>
</svg>
